solid CAESES STL-Export, generated Thu Jul 12 10:25:01 2018
facet normal -0.0377427094514 -0.957701312119 0.285278258283
  outer loop
    vertex 11.9687326906 3.14651184203 1.44424370137
    vertex 12.4159262014 3.36027483551 2.22102702661
    vertex 8.97171599388 3.27287539131 1.47194650142
  endloop
endfacet
facet normal -0.0255758779179 -0.972599847545 0.231074470733
  outer loop
    vertex 12.4159262014 3.36027483551 2.22102702661
    vertex 9.21680063029 3.44000927751 2.20254493771
    vertex 8.97171599388 3.27287539131 1.47194650142
  endloop
endfacet
facet normal -0.000145373075242 -0.974215555262 0.225619216273
  outer loop
    vertex 6.02291631367 3.28129962792 1.50642205011
    vertex 8.97171599388 3.27287539131 1.47194650142
    vertex 6.13148383466 3.44532490698 2.21474718193
  endloop
endfacet
facet normal -0.000796428828677 -0.974759504852 0.223256071366
  outer loop
    vertex 8.97171599388 3.27287539131 1.47194650142
    vertex 9.21680063029 3.44000927751 2.20254493771
    vertex 6.13148383466 3.44532490698 2.21474718193
  endloop
endfacet
facet normal -9.02303669331e-05 -0.99831549059 0.0580187306469
  outer loop
    vertex 6.25027670572 3.5 3.15571418389
    vertex 6.13148383466 3.44532490698 2.21474718193
    vertex 9.48683996866 3.5 3.16074766683
  endloop
endfacet
facet normal -0.00147070860425 -0.998018877707 0.0628979869032
  outer loop
    vertex 6.13148383466 3.44532490698 2.21474718193
    vertex 9.21680063029 3.44000927751 2.20254493771
    vertex 9.48683996866 3.5 3.16074766683
  endloop
endfacet
facet normal -0.00301845628414 -0.990447244752 0.137859146542
  outer loop
    vertex 12.9351837412 3.5 3.2362499109
    vertex 9.48683996866 3.5 3.16074766683
    vertex 12.4159262014 3.36027483551 2.22102702661
  endloop
endfacet
facet normal -0.0252573216306 -0.997258404207 0.0695538851751
  outer loop
    vertex 9.48683996866 3.5 3.16074766683
    vertex 9.21680063029 3.44000927751 2.20254493771
    vertex 12.4159262014 3.36027483551 2.22102702661
  endloop
endfacet
facet normal 0.0275118518888 -0.540375879414 0.840973844393
  outer loop
    vertex 5.83645732188 2.6251985117 0.787697396911
    vertex 8.55641082689 2.61717812773 0.693562507288
    vertex 5.92457414274 3.00792416283 1.03073878844
  endloop
endfacet
facet normal 0.0156857626511 -0.59057003317 0.806833931346
  outer loop
    vertex 8.55641082689 2.61717812773 0.693562507288
    vertex 8.75158605941 2.99859834138 0.968952357941
    vertex 5.92457414274 3.00792416283 1.03073878844
  endloop
endfacet
facet normal 0.00334166341359 -0.867311909289 0.497753840057
  outer loop
    vertex 6.02291631367 3.28129962792 1.50642205011
    vertex 5.92457414274 3.00792416283 1.03073878844
    vertex 8.97171599388 3.27287539131 1.47194650142
  endloop
endfacet
facet normal 0.00750684197351 -0.879309214548 0.476192138254
  outer loop
    vertex 5.92457414274 3.00792416283 1.03073878844
    vertex 8.75158605941 2.99859834138 0.968952357941
    vertex 8.97171599388 3.27287539131 1.47194650142
  endloop
endfacet
facet normal -0.032246223233 -0.87191287392 0.488598118478
  outer loop
    vertex 11.9687326906 3.14651184203 1.44424370137
    vertex 8.97171599388 3.27287539131 1.47194650142
    vertex 11.5936032088 2.85871101956 0.905899935204
  endloop
endfacet
facet normal -0.0320436540783 -0.871545035111 0.489267264393
  outer loop
    vertex 8.97171599388 3.27287539131 1.47194650142
    vertex 8.75158605941 2.99859834138 0.968952357941
    vertex 11.5936032088 2.85871101956 0.905899935204
  endloop
endfacet
facet normal -0.00330470749187 -0.636492056843 0.771276176531
  outer loop
    vertex 11.2905377561 2.49687236811 0.605995728099
    vertex 11.5936032088 2.85871101956 0.905899935204
    vertex 8.55641082689 2.61717812773 0.693562507288
  endloop
endfacet
facet normal -0.0105924722823 -0.581776976413 0.813279379578
  outer loop
    vertex 11.5936032088 2.85871101956 0.905899935204
    vertex 8.75158605941 2.99859834138 0.968952357941
    vertex 8.55641082689 2.61717812773 0.693562507288
  endloop
endfacet
facet normal 0.00246712674516 -0.856508753376 0.516126601403
  outer loop
    vertex 0 3.28129962792 1.53521207543
    vertex 0 3.00792416283 1.08154726107
    vertex 6.02291631367 3.28129962792 1.50642205011
  endloop
endfacet
facet normal 0.00426743082778 -0.867391441531 0.497608155273
  outer loop
    vertex 0 3.00792416283 1.08154726107
    vertex 5.92457414274 3.00792416283 1.03073878844
    vertex 6.02291631367 3.28129962792 1.50642205011
  endloop
endfacet
facet normal 0.011252220952 -0.537883500387 0.842944083279
  outer loop
    vertex 5.83645732188 2.6251985117 0.787697396911
    vertex 5.92457414274 3.00792416283 1.03073878844
    vertex 0 2.6251985117 0.865606606626
  endloop
endfacet
facet normal 0.00746883515159 -0.491383665703 0.870911195003
  outer loop
    vertex 5.92457414274 3.00792416283 1.03073878844
    vertex 0 3.00792416283 1.08154726107
    vertex 0 2.6251985117 0.865606606626
  endloop
endfacet
facet normal 0.00107762696659 -0.974256186473 0.225441171571
  outer loop
    vertex 6.02291631367 3.28129962792 1.50642205011
    vertex 6.13148383466 3.44532490698 2.21474718193
    vertex 0 3.28129962792 1.53521207543
  endloop
endfacet
facet normal 0.000446264821653 -0.972993248446 0.23083314174
  outer loop
    vertex 6.13148383466 3.44532490698 2.21474718193
    vertex 0 3.44532490698 2.2266010497
    vertex 0 3.28129962792 1.53521207543
  endloop
endfacet
facet normal -0.144700255928 -0.62722412647 0.765278858396
  outer loop
    vertex 19.7185678371 1.04632384882 0.403428690309
    vertex 20.068919609 1.10719181882 0.519561325353
    vertex 16.9133796858 1.78741135085 0.480415682741
  endloop
endfacet
facet normal -0.146382866694 -0.641810559873 0.752762420405
  outer loop
    vertex 17.4240916644 2.03655990048 0.792155014097
    vertex 16.9133796858 1.78741135085 0.480415682741
    vertex 18.9230831142 1.65581404245 0.759023648787
  endloop
endfacet
facet normal -0.20412332616 -0.717168039285 0.666336004689
  outer loop
    vertex 20.4413297609 1.18947210636 0.7222014205
    vertex 18.9230831142 1.65581404245 0.759023648787
    vertex 20.068919609 1.10719181882 0.519561325353
  endloop
endfacet
facet normal -0.146641119004 -0.636702029772 0.757038247053
  outer loop
    vertex 16.9133796858 1.78741135085 0.480415682741
    vertex 20.068919609 1.10719181882 0.519561325353
    vertex 18.9230831142 1.65581404245 0.759023648787
  endloop
endfacet
facet normal -0.224903298743 -0.778476825273 0.585996876038
  outer loop
    vertex 20.4413297609 1.18947210636 0.7222014205
    vertex 20.8357982928 1.29316471145 1.01134897575
    vertex 18.9230831142 1.65581404245 0.759023648787
  endloop
endfacet
facet normal -0.224375611354 -0.753129816284 0.618426280857
  outer loop
    vertex 18.9230831142 1.65581404245 0.759023648787
    vertex 20.8357982928 1.29316471145 1.01134897575
    vertex 19.7125520471 1.95192067251 1.40606003575
  endloop
endfacet
facet normal -0.265841279773 -0.786930718083 0.556837910801
  outer loop
    vertex 19.7125520471 1.95192067251 1.40606003575
    vertex 20.8357982928 1.29316471145 1.01134897575
    vertex 21.2523252047 1.41826963408 1.3870039911
  endloop
endfacet
facet normal -0.180668615719 -0.76507335343 0.618078971625
  outer loop
    vertex 17.4240916644 2.03655990048 0.792155014097
    vertex 18.9230831142 1.65581404245 0.759023648787
    vertex 18.1630090579 2.36858252521 1.4191312798
  endloop
endfacet
facet normal -0.202777215512 -0.772976617624 0.601156010929
  outer loop
    vertex 18.9230831142 1.65581404245 0.759023648787
    vertex 19.7125520471 1.95192067251 1.40606003575
    vertex 18.1630090579 2.36858252521 1.4191312798
  endloop
endfacet
facet normal -0.326855317491 -0.829525932791 0.452827040111
  outer loop
    vertex 23.5355886452 0 0.637484375
    vertex 23.9534777087 0 0.93912109375
    vertex 21.9788316046 0.637534092214 0.681688329238
  endloop
endfacet
facet normal -0.317085358065 -0.7452753078 0.586533538073
  outer loop
    vertex 23.9534777087 0 0.93912109375
    vertex 22.3887747748 0.695847039406 0.9774023257
    vertex 21.9788316046 0.637534092214 0.681688329238
  endloop
endfacet
facet normal -0.25257892804 -0.748592323157 0.613036229615
  outer loop
    vertex 20.4413297609 1.18947210636 0.7222014205
    vertex 21.9788316046 0.637534092214 0.681688329238
    vertex 20.8357982928 1.29316471145 1.01134897575
  endloop
endfacet
facet normal -0.28834719731 -0.78115051658 0.55376869201
  outer loop
    vertex 21.9788316046 0.637534092214 0.681688329238
    vertex 22.3887747748 0.695847039406 0.9774023257
    vertex 20.8357982928 1.29316471145 1.01134897575
  endloop
endfacet
facet normal -0.307801182483 -0.746508501839 0.589901253384
  outer loop
    vertex 21.2523252047 1.41826963408 1.3870039911
    vertex 20.8357982928 1.29316471145 1.01134897575
    vertex 22.7823285309 0.767629409908 1.36196314585
  endloop
endfacet
facet normal -0.307978051437 -0.827407040382 0.469624434371
  outer loop
    vertex 20.8357982928 1.29316471145 1.01134897575
    vertex 22.3887747748 0.695847039406 0.9774023257
    vertex 22.7823285309 0.767629409908 1.36196314585
  endloop
endfacet
facet normal -0.413103777925 -0.832997254098 0.368050055467
  outer loop
    vertex 24.3025620255 0 1.3309375
    vertex 22.7823285309 0.767629409908 1.36196314585
    vertex 23.9534777087 0 0.93912109375
  endloop
endfacet
facet normal -0.342001882421 -0.796469605065 0.498669109358
  outer loop
    vertex 22.7823285309 0.767629409908 1.36196314585
    vertex 22.3887747748 0.695847039406 0.9774023257
    vertex 23.9534777087 0 0.93912109375
  endloop
endfacet
facet normal -0.2766606511 -0.719712210401 0.636767789962
  outer loop
    vertex 23.0488948348 0 0.42602734375
    vertex 23.5355886452 0 0.637484375
    vertex 21.9788316046 0.637534092214 0.681688329238
  endloop
endfacet
facet normal -0.226887855089 -0.682990705496 0.694295036292
  outer loop
    vertex 20.4413297609 1.18947210636 0.7222014205
    vertex 20.068919609 1.10719181882 0.519561325353
    vertex 21.9788316046 0.637534092214 0.681688329238
  endloop
endfacet
facet normal -0.223524460317 -0.662042133203 0.715357972978
  outer loop
    vertex 23.0488948348 0 0.42602734375
    vertex 21.9788316046 0.637534092214 0.681688329238
    vertex 20.068919609 1.10719181882 0.519561325353
  endloop
endfacet
facet normal -0.178200097467 -0.54956116595 0.816227450006
  outer loop
    vertex 22.4933962776 0 0.30475
    vertex 23.0488948348 0 0.42602734375
    vertex 19.7185678371 1.04632384882 0.403428690309
  endloop
endfacet
facet normal -0.176873711087 -0.545271192616 0.819386976238
  outer loop
    vertex 23.0488948348 0 0.42602734375
    vertex 20.068919609 1.10719181882 0.519561325353
    vertex 19.7185678371 1.04632384882 0.403428690309
  endloop
endfacet
facet normal -0.0750504635825 -0.856715247238 0.510300316544
  outer loop
    vertex 11.9687326906 3.14651184203 1.44424370137
    vertex 11.5936032088 2.85871101956 0.905899935204
    vertex 15.040963204 2.86851203361 1.42936158179
  endloop
endfacet
facet normal -0.0789325948001 -0.840794706073 0.535568770297
  outer loop
    vertex 11.5936032088 2.85871101956 0.905899935204
    vertex 14.4821821916 2.55095891156 0.848478161391
    vertex 15.040963204 2.86851203361 1.42936158179
  endloop
endfacet
facet normal -0.124392733965 -0.778742818369 0.614887038874
  outer loop
    vertex 17.4240916644 2.03655990048 0.792155014097
    vertex 16.6036962372 2.66825519217 1.42621772323
    vertex 14.4821821916 2.55095891156 0.848478161391
  endloop
endfacet
facet normal -0.104826820997 -0.826709286862 0.552777615879
  outer loop
    vertex 15.040963204 2.86851203361 1.42936158179
    vertex 14.4821821916 2.55095891156 0.848478161391
    vertex 16.6036962372 2.66825519217 1.42621772323
  endloop
endfacet
facet normal -0.149176739744 -0.790278151015 0.594311992431
  outer loop
    vertex 17.4240916644 2.03655990048 0.792155014097
    vertex 18.1630090579 2.36858252521 1.4191312798
    vertex 16.6036962372 2.66825519217 1.42621772323
  endloop
endfacet
facet normal -0.0948884458405 -0.696019290645 0.711725600141
  outer loop
    vertex 16.9133796858 1.78741135085 0.480415682741
    vertex 17.4240916644 2.03655990048 0.792155014097
    vertex 14.0827451678 2.23219969694 0.538003549427
  endloop
endfacet
facet normal -0.0955066605114 -0.630551001168 0.770249253634
  outer loop
    vertex 17.4240916644 2.03655990048 0.792155014097
    vertex 14.4821821916 2.55095891156 0.848478161391
    vertex 14.0827451678 2.23219969694 0.538003549427
  endloop
endfacet
facet normal -0.039443241317 -0.617851165516 0.785305143231
  outer loop
    vertex 11.2905377561 2.49687236811 0.605995728099
    vertex 14.0827451678 2.23219969694 0.538003549427
    vertex 11.5936032088 2.85871101956 0.905899935204
  endloop
endfacet
facet normal -0.0554415463368 -0.660145859098 0.749088565963
  outer loop
    vertex 14.0827451678 2.23219969694 0.538003549427
    vertex 14.4821821916 2.55095891156 0.848478161391
    vertex 11.5936032088 2.85871101956 0.905899935204
  endloop
endfacet
facet normal -0.0805541454542 -0.941409973507 0.327503116674
  outer loop
    vertex 15.7590882049 3.18485906309 2.28065381061
    vertex 17.4774231954 3.05312800703 2.32464141266
    vertex 16.6365571944 3.5 3.40235484787
  endloop
endfacet
facet normal -0.0282076793056 -0.930965899665 0.364014863006
  outer loop
    vertex 17.4774231954 3.05312800703 2.32464141266
    vertex 18.5655362862 3.486328125 3.51686658472
    vertex 16.6365571944 3.5 3.40235484787
  endloop
endfacet
facet normal -0.128977517063 -0.873960833186 0.46856937816
  outer loop
    vertex 20.3254600897 3.28125 3.61879461422
    vertex 18.5655362862 3.486328125 3.51686658472
    vertex 19.1301318663 2.78347922505 2.36134447984
  endloop
endfacet
facet normal -0.153050083139 -0.875736658265 0.457887516123
  outer loop
    vertex 18.5655362862 3.486328125 3.51686658472
    vertex 17.4774231954 3.05312800703 2.32464141266
    vertex 19.1301318663 2.78347922505 2.36134447984
  endloop
endfacet
facet normal -0.113959499566 -0.896035935197 0.429107020795
  outer loop
    vertex 15.040963204 2.86851203361 1.42936158179
    vertex 16.6036962372 2.66825519217 1.42621772323
    vertex 15.7590882049 3.18485906309 2.28065381061
  endloop
endfacet
facet normal -0.079614132571 -0.885925237847 0.456944266668
  outer loop
    vertex 16.6036962372 2.66825519217 1.42621772323
    vertex 17.4774231954 3.05312800703 2.32464141266
    vertex 15.7590882049 3.18485906309 2.28065381061
  endloop
endfacet
facet normal -0.14860360948 -0.839716857861 0.522295477554
  outer loop
    vertex 19.1301318663 2.78347922505 2.36134447984
    vertex 17.4774231954 3.05312800703 2.32464141266
    vertex 18.1630090579 2.36858252521 1.4191312798
  endloop
endfacet
facet normal -0.159438807845 -0.841816203121 0.515678918239
  outer loop
    vertex 17.4774231954 3.05312800703 2.32464141266
    vertex 16.6036962372 2.66825519217 1.42621772323
    vertex 18.1630090579 2.36858252521 1.4191312798
  endloop
endfacet
facet normal -0.0842190802565 -0.947272067764 0.309164642471
  outer loop
    vertex 11.9687326906 3.14651184203 1.44424370137
    vertex 15.040963204 2.86851203361 1.42936158179
    vertex 12.4159262014 3.36027483551 2.22102702661
  endloop
endfacet
facet normal -0.0551912188057 -0.919845230284 0.388379558795
  outer loop
    vertex 15.040963204 2.86851203361 1.42936158179
    vertex 15.7590882049 3.18485906309 2.28065381061
    vertex 12.4159262014 3.36027483551 2.22102702661
  endloop
endfacet
facet normal -0.00625953963097 -0.990204614396 0.139483474977
  outer loop
    vertex 12.9351837412 3.5 3.2362499109
    vertex 12.4159262014 3.36027483551 2.22102702661
    vertex 16.6365571944 3.5 3.40235484787
  endloop
endfacet
facet normal -0.0553295653385 -0.949143635152 0.309943541713
  outer loop
    vertex 12.4159262014 3.36027483551 2.22102702661
    vertex 15.7590882049 3.18485906309 2.28065381061
    vertex 16.6365571944 3.5 3.40235484787
  endloop
endfacet
facet normal -0.319646939295 -0.772764131106 0.548326026991
  outer loop
    vertex 21.2523252047 1.41826963408 1.3870039911
    vertex 22.7823285309 0.767629409908 1.36196314585
    vertex 21.6909104967 1.56478687425 1.84916646656
  endloop
endfacet
facet normal -0.385643864569 -0.804301171303 0.452082332723
  outer loop
    vertex 22.7823285309 0.767629409908 1.36196314585
    vertex 23.1594928726 0.852881203718 1.8353707897
    vertex 21.6909104967 1.56478687425 1.84916646656
  endloop
endfacet
facet normal -0.469250090087 -0.767960348115 0.435937216439
  outer loop
    vertex 23.1594928726 0.852881203718 1.8353707897
    vertex 23.5202678002 0.951602420836 2.39762525724
    vertex 22.8477441111 1.36347047761 2.39926892185
  endloop
endfacet
facet normal -0.391141731554 -0.735325904365 0.553447341855
  outer loop
    vertex 22.1515541687 1.73271643196 2.39783640212
    vertex 21.6909104967 1.56478687425 1.84916646656
    vertex 22.8477441111 1.36347047761 2.39926892185
  endloop
endfacet
facet normal -0.37385299931 -0.780914375957 0.500406507082
  outer loop
    vertex 23.1594928726 0.852881203718 1.8353707897
    vertex 22.8477441111 1.36347047761 2.39926892185
    vertex 21.6909104967 1.56478687425 1.84916646656
  endloop
endfacet
facet normal -0.477374000838 -0.805889157801 0.35022382652
  outer loop
    vertex 24.5828415954 0 1.81293359375
    vertex 24.169125236 0.497112261633 2.39290540829
    vertex 23.1594928726 0.852881203718 1.8353707897
  endloop
endfacet
facet normal -0.508725199904 -0.731009482823 0.454778855056
  outer loop
    vertex 23.5202678002 0.951602420836 2.39762525724
    vertex 23.1594928726 0.852881203718 1.8353707897
    vertex 24.169125236 0.497112261633 2.39290540829
  endloop
endfacet
facet normal -0.604907608458 -0.764265761383 0.223572429443
  outer loop
    vertex 24.5828415954 0 1.81293359375
    vertex 24.7943164184 0 2.385109375
    vertex 24.169125236 0.497112261633 2.39290540829
  endloop
endfacet
facet normal -0.432181381668 -0.866060802466 0.251312434573
  outer loop
    vertex 24.3025620255 0 1.3309375
    vertex 24.5828415954 0 1.81293359375
    vertex 22.7823285309 0.767629409908 1.36196314585
  endloop
endfacet
facet normal -0.442886246857 -0.751965004587 0.488262638568
  outer loop
    vertex 24.5828415954 0 1.81293359375
    vertex 23.1594928726 0.852881203718 1.8353707897
    vertex 22.7823285309 0.767629409908 1.36196314585
  endloop
endfacet
facet normal -0.274496539414 -0.810497419063 0.517441381745
  outer loop
    vertex 21.2523252047 1.41826963408 1.3870039911
    vertex 21.6909104967 1.56478687425 1.84916646656
    vertex 19.7125520471 1.95192067251 1.40606003575
  endloop
endfacet
facet normal -0.279862477942 -0.762485956646 0.583345660272
  outer loop
    vertex 19.7125520471 1.95192067251 1.40606003575
    vertex 21.6909104967 1.56478687425 1.84916646656
    vertex 20.6881755241 2.34334203336 2.38574280966
  endloop
endfacet
facet normal -0.3325831627 -0.786744239891 0.520021096579
  outer loop
    vertex 20.6881755241 2.34334203336 2.38574280966
    vertex 21.6909104967 1.56478687425 1.84916646656
    vertex 22.1515541687 1.73271643196 2.39783640212
  endloop
endfacet
facet normal -0.20958584217 -0.797199908945 0.566167890241
  outer loop
    vertex 18.1630090579 2.36858252521 1.4191312798
    vertex 19.7125520471 1.95192067251 1.40606003575
    vertex 19.1301318663 2.78347922505 2.36134447984
  endloop
endfacet
facet normal -0.234515786562 -0.799509941808 0.552979383705
  outer loop
    vertex 19.7125520471 1.95192067251 1.40606003575
    vertex 20.6881755241 2.34334203336 2.38574280966
    vertex 19.1301318663 2.78347922505 2.36134447984
  endloop
endfacet
facet normal -0.337998781989 -0.800210551363 0.495398725131
  outer loop
    vertex 22.1515541687 1.73271643196 2.39783640212
    vertex 22.6342562208 1.92205830721 3.03301379779
    vertex 20.6881755241 2.34334203336 2.38574280966
  endloop
endfacet
facet normal -0.352444247768 -0.73172530573 0.58340477301
  outer loop
    vertex 20.6881755241 2.34334203336 2.38574280966
    vertex 22.6342562208 1.92205830721 3.03301379779
    vertex 21.8499535453 2.830078125 3.6980719705
  endloop
endfacet
facet normal -0.425261223187 -0.744387762397 0.514820115425
  outer loop
    vertex 21.8499535453 2.830078125 3.6980719705
    vertex 22.6342562208 1.92205830721 3.03301379779
    vertex 23.1390166528 2.1328125 3.75469865355
  endloop
endfacet
facet normal -0.236093403194 -0.805628696985 0.543343636719
  outer loop
    vertex 19.1301318663 2.78347922505 2.36134447984
    vertex 20.6881755241 2.34334203336 2.38574280966
    vertex 20.3254600897 3.28125 3.61879461422
  endloop
endfacet
facet normal -0.265479330865 -0.803389936974 0.532996561014
  outer loop
    vertex 20.6881755241 2.34334203336 2.38574280966
    vertex 21.8499535453 2.830078125 3.6980719705
    vertex 20.3254600897 3.28125 3.61879461422
  endloop
endfacet
facet normal -0.528136222378 -0.641254640227 0.556654845483
  outer loop
    vertex 23.1390166528 2.1328125 3.75469865355
    vertex 22.6342562208 1.92205830721 3.03301379779
    vertex 23.6952618262 1.69189453125 3.77451799262
  endloop
endfacet
facet normal -0.481937174782 -0.747177288032 0.457670907763
  outer loop
    vertex 22.6342562208 1.92205830721 3.03301379779
    vertex 23.269212756 1.51861666115 3.04299198005
    vertex 23.6952618262 1.69189453125 3.77451799262
  endloop
endfacet
facet normal -0.65701759725 -0.639144947354 0.399776954283
  outer loop
    vertex 24.1926494125 1.189453125 3.78867466339
    vertex 23.6952618262 1.69189453125 3.77451799262
    vertex 23.8646533135 1.06379306126 3.04872654847
  endloop
endfacet
facet normal -0.536324585511 -0.696121682227 0.477253122053
  outer loop
    vertex 23.6952618262 1.69189453125 3.77451799262
    vertex 23.269212756 1.51861666115 3.04299198005
    vertex 23.8646533135 1.06379306126 3.04872654847
  endloop
endfacet
facet normal -0.48033193173 -0.785870040169 0.389473382049
  outer loop
    vertex 23.5202678002 0.951602420836 2.39762525724
    vertex 23.8646533135 1.06379306126 3.04872654847
    vertex 22.8477441111 1.36347047761 2.39926892185
  endloop
endfacet
facet normal -0.525744348789 -0.681875580303 0.508565209883
  outer loop
    vertex 23.8646533135 1.06379306126 3.04872654847
    vertex 23.269212756 1.51861666115 3.04299198005
    vertex 22.8477441111 1.36347047761 2.39926892185
  endloop
endfacet
facet normal -0.399069278706 -0.75037557842 0.526953700152
  outer loop
    vertex 22.1515541687 1.73271643196 2.39783640212
    vertex 22.8477441111 1.36347047761 2.39926892185
    vertex 22.6342562208 1.92205830721 3.03301379779
  endloop
endfacet
facet normal -0.473818692077 -0.733673353658 0.487051596004
  outer loop
    vertex 22.8477441111 1.36347047761 2.39926892185
    vertex 23.269212756 1.51861666115 3.04299198005
    vertex 22.6342562208 1.92205830721 3.03301379779
  endloop
endfacet
facet normal -0.615856777908 -0.77661010347 0.132654348941
  outer loop
    vertex 24.7943164184 0 2.385109375
    vertex 24.9369864947 0 3.04746484375
    vertex 24.169125236 0.497112261633 2.39290540829
  endloop
endfacet
facet normal -0.693203726312 -0.643610766185 0.324397557756
  outer loop
    vertex 24.9369864947 0 3.04746484375
    vertex 24.420577893 0.557587507547 3.05021750303
    vertex 24.169125236 0.497112261633 2.39290540829
  endloop
endfacet
facet normal -0.522425568556 -0.75005789107 0.405567115732
  outer loop
    vertex 23.5202678002 0.951602420836 2.39762525724
    vertex 24.169125236 0.497112261633 2.39290540829
    vertex 23.8646533135 1.06379306126 3.04872654847
  endloop
endfacet
facet normal -0.640619146716 -0.702627937808 0.309711300847
  outer loop
    vertex 24.169125236 0.497112261633 2.39290540829
    vertex 24.420577893 0.557587507547 3.05021750303
    vertex 23.8646533135 1.06379306126 3.04872654847
  endloop
endfacet
facet normal -0.721579369844 -0.554851964259 0.41408031923
  outer loop
    vertex 24.1926494125 1.189453125 3.78867466339
    vertex 23.8646533135 1.06379306126 3.04872654847
    vertex 24.6311794118 0.62548828125 3.79716866585
  endloop
endfacet
facet normal -0.652425870498 -0.715773073368 0.24901684872
  outer loop
    vertex 23.8646533135 1.06379306126 3.04872654847
    vertex 24.420577893 0.557587507547 3.05021750303
    vertex 24.6311794118 0.62548828125 3.79716866585
  endloop
endfacet
facet normal -0.0057214291935 -0.172876688156 0.984926858168
  outer loop
    vertex 15.9627545659 1.13284700106 0.206190897871
    vertex 13.2624704474 1.3547875118 0.229460499962
    vertex 14.6973162903 0 0
  endloop
endfacet
facet normal 0.00185154680255 -0.165084979741 0.986277608606
  outer loop
    vertex 13.2624704474 1.3547875118 0.229460499962
    vertex 12.0807064041 0 0.0049121825601
    vertex 14.6973162903 0 0
  endloop
endfacet
facet normal 0.0153771354083 -0.183483345754 0.98290254122
  outer loop
    vertex 10.5916124361 1.47379671013 0.293461098742
    vertex 10.1185059436 0.793238486585 0.173819453405
    vertex 13.2624704474 1.3547875118 0.229460499962
  endloop
endfacet
facet normal 0.0138837773303 -0.175272981638 0.984421973868
  outer loop
    vertex 13.2624704474 1.3547875118 0.229460499962
    vertex 10.1185059436 0.793238486585 0.173819453405
    vertex 12.0807064041 0 0.0049121825601
  endloop
endfacet
facet normal 0.0289684995729 -0.139114875208 0.989852452403
  outer loop
    vertex 12.0807064041 0 0.0049121825601
    vertex 10.1185059436 0.793238486585 0.173819453405
    vertex 9.56297022921 0 0.0785949209616
  endloop
endfacet
facet normal -0.0347663551505 -0.34279756442 0.938765748404
  outer loop
    vertex 16.9133796858 1.78741135085 0.480415682741
    vertex 14.0827451678 2.23219969694 0.538003549427
    vertex 15.9627545659 1.13284700106 0.206190897871
  endloop
endfacet
facet normal -0.0178644700603 -0.316780478824 0.948330632715
  outer loop
    vertex 14.0827451678 2.23219969694 0.538003549427
    vertex 13.2624704474 1.3547875118 0.229460499962
    vertex 15.9627545659 1.13284700106 0.206190897871
  endloop
endfacet
facet normal 0.00958758095723 -0.298128761076 0.954477511579
  outer loop
    vertex 10.5916124361 1.47379671013 0.293461098742
    vertex 13.2624704474 1.3547875118 0.229460499962
    vertex 11.2905377561 2.49687236811 0.605995728099
  endloop
endfacet
facet normal -0.00780222814938 -0.325228396047 0.945603307757
  outer loop
    vertex 13.2624704474 1.3547875118 0.229460499962
    vertex 14.0827451678 2.23219969694 0.538003549427
    vertex 11.2905377561 2.49687236811 0.605995728099
  endloop
endfacet
facet normal -0.0437584264737 -0.331306169634 0.942508048812
  outer loop
    vertex 15.9627545659 1.13284700106 0.206190897871
    vertex 18.2943849506 0.684419264144 0.156813707748
    vertex 16.9133796858 1.78741135085 0.480415682741
  endloop
endfacet
facet normal -0.0695954289568 -0.360080222305 0.930321831289
  outer loop
    vertex 18.2943849506 0.684419264144 0.156813707748
    vertex 19.7185678371 1.04632384882 0.403428690309
    vertex 16.9133796858 1.78741135085 0.480415682741
  endloop
endfacet
facet normal -0.0944003774983 -0.338637808447 0.936169324117
  outer loop
    vertex 22.4933962776 0 0.30475
    vertex 19.7185678371 1.04632384882 0.403428690309
    vertex 20.2267400755 0 0.0761875
  endloop
endfacet
facet normal -0.0783910850511 -0.332059162779 0.939995505414
  outer loop
    vertex 19.7185678371 1.04632384882 0.403428690309
    vertex 18.2943849506 0.684419264144 0.156813707748
    vertex 20.2267400755 0 0.0761875
  endloop
endfacet
facet normal 0 -0.179069303558 0.983836462286
  outer loop
    vertex 14.6973162903 0 0
    vertex 16.7364169459 0 0
    vertex 15.9627545659 1.13284700106 0.206190897871
  endloop
endfacet
facet normal -0.0156288045689 -0.18936878279 0.981781648113
  outer loop
    vertex 16.7364169459 0 0
    vertex 18.2943849506 0.684419264144 0.156813707748
    vertex 15.9627545659 1.13284700106 0.206190897871
  endloop
endfacet
facet normal -0.0357283387978 -0.21582264343 0.975778700521
  outer loop
    vertex 20.2267400755 0 0.0761875
    vertex 18.2943849506 0.684419264144 0.156813707748
    vertex 18.1459789137 0 0
  endloop
endfacet
facet normal 0 -0.223332350509 0.974742356326
  outer loop
    vertex 18.2943849506 0.684419264144 0.156813707748
    vertex 16.7364169459 0 0
    vertex 18.1459789137 0 0
  endloop
endfacet
facet normal 0.0132431386672 -0.124821376781 0.992090844216
  outer loop
    vertex 0 2.6251985117 0.865606606626
    vertex 0 1.53149813962 0.728001076826
    vertex 5.83645732188 2.6251985117 0.787697396911
  endloop
endfacet
facet normal 0.0261603563809 -0.193138192138 0.980822753861
  outer loop
    vertex 0 1.53149813962 0.728001076826
    vertex 5.61642664325 1.53149813962 0.578200593511
    vertex 5.83645732188 2.6251985117 0.787697396911
  endloop
endfacet
facet normal 0.063175637761 -0.199997782273 0.977757498503
  outer loop
    vertex 5.61642664325 1.53149813962 0.578200593511
    vertex 8.07266663714 1.52789180028 0.418758412584
    vertex 5.83645732188 2.6251985117 0.787697396911
  endloop
endfacet
facet normal 0.03265628289 -0.258094851005 0.965567509329
  outer loop
    vertex 8.07266663714 1.52789180028 0.418758412584
    vertex 8.55641082689 2.61717812773 0.693562507288
    vertex 5.83645732188 2.6251985117 0.787697396911
  endloop
endfacet
facet normal 0.0171930570606 -0.302838576767 0.952886769354
  outer loop
    vertex 11.2905377561 2.49687236811 0.605995728099
    vertex 8.55641082689 2.61717812773 0.693562507288
    vertex 10.5916124361 1.47379671013 0.293461098742
  endloop
endfacet
facet normal 0.0423306369158 -0.262028816972 0.964131223566
  outer loop
    vertex 8.55641082689 2.61717812773 0.693562507288
    vertex 8.07266663714 1.52789180028 0.418758412584
    vertex 10.5916124361 1.47379671013 0.293461098742
  endloop
endfacet
facet normal 0.103683320536 -0.082619090929 0.991172969192
  outer loop
    vertex 5.28835119067 0 0.456592009134
    vertex 7.35222559405 0 0.240696945445
    vertex 5.4658945137 0.820473790756 0.506410273945
  endloop
endfacet
facet normal 0.0818341038598 -0.131790176678 0.987893986608
  outer loop
    vertex 7.35222559405 0 0.240696945445
    vertex 7.74203322226 0.818771584245 0.317634850569
    vertex 5.4658945137 0.820473790756 0.506410273945
  endloop
endfacet
facet normal 0.0641905333414 -0.113693066994 0.991440094986
  outer loop
    vertex 5.61642664325 1.53149813962 0.578200593511
    vertex 5.4658945137 0.820473790756 0.506410273945
    vertex 8.07266663714 1.52789180028 0.418758412584
  endloop
endfacet
facet normal 0.0812052025479 -0.177718217344 0.980725216512
  outer loop
    vertex 5.4658945137 0.820473790756 0.506410273945
    vertex 7.74203322226 0.818771584245 0.317634850569
    vertex 8.07266663714 1.52789180028 0.418758412584
  endloop
endfacet
facet normal 0.0443042162228 -0.20277014963 0.978223595526
  outer loop
    vertex 10.5916124361 1.47379671013 0.293461098742
    vertex 8.07266663714 1.52789180028 0.418758412584
    vertex 10.1185059436 0.793238486585 0.173819453405
  endloop
endfacet
facet normal 0.0577637213823 -0.167286050989 0.984214778205
  outer loop
    vertex 8.07266663714 1.52789180028 0.418758412584
    vertex 7.74203322226 0.818771584245 0.317634850569
    vertex 10.1185059436 0.793238486585 0.173819453405
  endloop
endfacet
facet normal 0.0720827580446 -0.168494473362 0.983063420355
  outer loop
    vertex 9.56297022921 0 0.0785949209616
    vertex 10.1185059436 0.793238486585 0.173819453405
    vertex 7.35222559405 0 0.240696945445
  endloop
endfacet
facet normal 0.0586658513637 -0.121043643955 0.990912081944
  outer loop
    vertex 10.1185059436 0.793238486585 0.173819453405
    vertex 7.74203322226 0.818771584245 0.317634850569
    vertex 7.35222559405 0 0.240696945445
  endloop
endfacet
facet normal 0.0265122225648 -0.105976129076 0.994015171977
  outer loop
    vertex 0 1.53149813962 0.728001076826
    vertex 5.4658945137 0.820473790756 0.506410273945
    vertex 5.61642664325 1.53149813962 0.578200593511
  endloop
endfacet
facet normal 0.0384261089794 -0.0159850420772 0.999133580948
  outer loop
    vertex 0 1.53149813962 0.728001076826
    vertex 0 0 0.703498785371
    vertex 5.4658945137 0.820473790756 0.506410273945
  endloop
endfacet
facet normal 0.0465217253122 -0.0705685089899 0.996421504491
  outer loop
    vertex 5.28835119067 0 0.456592009134
    vertex 5.4658945137 0.820473790756 0.506410273945
    vertex 0 0 0.703498785371
  endloop
endfacet
facet normal 0 -0.999619874007 0.0275700469663
  outer loop
    vertex 0 3.5 3.15571418389
    vertex 3.076265496 3.48633122675 2.66011918489
    vertex 6.25027670572 3.5 3.15571418389
  endloop
endfacet
facet normal 0.00502827929054 -0.998260406314 0.0587441707191
  outer loop
    vertex 0 3.5 3.15571418389
    vertex 0 3.44532490698 2.2266010497
    vertex 3.076265496 3.48633122675 2.66011918489
  endloop
endfacet
facet normal 0.000179613149954 -0.99567487054 0.0929059735161
  outer loop
    vertex 6.13148383466 3.44532490698 2.21474718193
    vertex 3.076265496 3.48633122675 2.66011918489
    vertex 0 3.44532490698 2.2266010497
  endloop
endfacet
facet normal -0.00485359501325 -0.998268724807 0.0586173667707
  outer loop
    vertex 6.13148383466 3.44532490698 2.21474718193
    vertex 6.25027670572 3.5 3.15571418389
    vertex 3.076265496 3.48633122675 2.66011918489
  endloop
endfacet
facet normal -0.818625190361 -0.568679423436 0.0803524179294
  outer loop
    vertex 25.0108518242 0 3.8
    vertex 24.7628461858 0.302339850666 3.41308929193
    vertex 24.9369864947 0 3.04746484375
  endloop
endfacet
facet normal -0.846513535416 -0.513194201903 0.141585823764
  outer loop
    vertex 25.0108518242 0 3.8
    vertex 24.6311794118 0.62548828125 3.79716866585
    vertex 24.7628461858 0.302339850666 3.41308929193
  endloop
endfacet
facet normal -0.741052581005 -0.616932316765 0.265019977958
  outer loop
    vertex 24.420577893 0.557587507547 3.05021750303
    vertex 24.7628461858 0.302339850666 3.41308929193
    vertex 24.6311794118 0.62548828125 3.79716866585
  endloop
endfacet
facet normal -0.717044636665 -0.665118727732 0.208480375695
  outer loop
    vertex 24.420577893 0.557587507547 3.05021750303
    vertex 24.9369864947 0 3.04746484375
    vertex 24.7628461858 0.302339850666 3.41308929193
  endloop
endfacet
endsolid
